<?xml version="1.0" encoding="UTF-8"?>
<svg version="1.1" xmlns="http://www.w3.org/2000/svg" width="1024" height="1024">
<path d="M0 0 C337.92 0 675.84 0 1024 0 C1024 337.92 1024 675.84 1024 1024 C686.08 1024 348.16 1024 0 1024 C0 686.08 0 348.16 0 0 Z " fill="#FEFEFE" transform="translate(0,0)"/>
<path d="M0 0 C1.30292496 -0.00807175 2.60584991 -0.01614349 3.94825745 -0.02445984 C6.68026587 -0.03932763 9.41224976 -0.04924752 12.14428711 -0.05688477 C15.63677484 -0.06805073 19.12864323 -0.10263191 22.62090969 -0.14205647 C25.97641487 -0.17446307 29.33185049 -0.17898779 32.6875 -0.1875 C33.93647568 -0.20500809 35.18545135 -0.22251617 36.47227478 -0.24055481 C37.63440994 -0.23762924 38.7965451 -0.23470367 39.99389648 -0.23168945 C41.01249252 -0.23755569 42.03108856 -0.24342194 43.08055115 -0.24946594 C46.64099278 0.37111127 48.31280333 1.74122667 50.87890625 4.23828125 C51.8137207 6.81494141 51.8137207 6.81494141 52.2421875 9.77734375 C52.48932495 11.46065796 52.48932495 11.46065796 52.74145508 13.17797852 C52.88993896 14.39412842 53.03842285 15.61027832 53.19140625 16.86328125 C53.35600342 18.12261475 53.52060059 19.38194824 53.69018555 20.67944336 C58.03482436 56.32033506 58.03482436 56.32033506 53.87890625 71.23828125 C53.78619215 72.97924604 53.69720409 74.72062927 53.64038086 76.46313477 C52.89824603 97.40701233 49.33142606 122.29708166 37.87890625 140.23828125 C37.16798345 142.03388406 36.50126771 143.84759447 35.87890625 145.67578125 C31.98648822 156.68449027 31.98648822 156.68449027 28.87890625 158.23828125 C28.15731201 159.88191259 27.48539204 161.54878511 26.87890625 163.23828125 C26.21890625 163.23828125 25.55890625 163.23828125 24.87890625 163.23828125 C24.60949219 163.97175781 24.34007812 164.70523438 24.0625 165.4609375 C16.60289325 182.96516325 -0.21314434 198.89836929 -15.140625 210.01171875 C-17.03821034 211.42931199 -18.91044477 212.88197821 -20.74609375 214.37890625 C-22.88207955 216.05115829 -24.9179329 217.34842879 -27.30859375 218.61328125 C-30.64787008 220.41305705 -33.89334274 222.30790854 -37.12109375 224.30078125 C-41.01171632 226.65690361 -44.92775064 228.60788728 -49.1171875 230.37109375 C-51.29510041 231.27451503 -51.29510041 231.27451503 -53.93359375 232.80078125 C-58.80986672 234.99988475 -63.92664313 236.02161988 -69.12109375 237.23828125 C-72.06245253 237.98476245 -75.0019752 238.73815953 -77.94140625 239.4921875 C-79.51535156 239.86150391 -79.51535156 239.86150391 -81.12109375 240.23828125 C-82.10432617 240.49750366 -82.10432617 240.49750366 -83.10742188 240.76196289 C-90.70540508 242.56559779 -98.29828892 242.5761786 -106.06005859 242.55395508 C-108.35302836 242.55080606 -110.64468979 242.57428668 -112.9375 242.59960938 C-122.41558708 242.6403509 -130.91920698 241.69410997 -140.12109375 239.23828125 C-140.84176025 239.0477417 -141.56242676 238.85720215 -142.30493164 238.66088867 C-143.91773458 238.21255477 -145.52018509 237.7273907 -147.12109375 237.23828125 C-148.19746094 236.95210937 -149.27382813 236.6659375 -150.3828125 236.37109375 C-165.92098221 231.80000164 -185.71376436 221.9345403 -195.12109375 208.23828125 C-199.45643806 198.53601699 -198.66985667 187.37478267 -198.62109375 176.98828125 C-198.62032837 176.05375122 -198.61956299 175.11922119 -198.61877441 174.15637207 C-198.57574876 159.61432526 -197.33229377 146.21872053 -193.12109375 132.23828125 C-192.75435907 130.8635809 -192.39333866 129.48733864 -192.0390625 128.109375 C-190.21990825 121.27486323 -187.93183765 114.72691343 -185.12109375 108.23828125 C-184.46109375 108.23828125 -183.80109375 108.23828125 -183.12109375 108.23828125 C-183.01796875 107.35140625 -182.91484375 106.46453125 -182.80859375 105.55078125 C-182.09089066 102.09275725 -180.96312155 100.21386461 -179.12109375 97.23828125 C-178.49267578 95.42650391 -178.49267578 95.42650391 -177.8515625 93.578125 C-176.15048483 88.95068848 -173.65263679 85.17606552 -170.80859375 81.17578125 C-170.34775391 80.50740234 -169.88691406 79.83902344 -169.41210938 79.15039062 C-165.31832552 73.29155393 -160.9940259 67.53658979 -155.43359375 62.98828125 C-152.11538888 60.1824922 -149.12521522 57.19002062 -146.12109375 54.05078125 C-141.65332273 49.533091 -136.95522107 45.60859057 -131.87109375 41.80078125 C-130.87916016 41.0569519 -130.87916016 41.0569519 -129.8671875 40.2980957 C-125.76174301 37.28431688 -121.56373487 34.72404474 -117.12109375 32.23828125 C-115.6931428 31.27564535 -114.274867 30.29834452 -112.87109375 29.30078125 C-106.35785553 24.91408747 -99.07128154 20.88289107 -91.12109375 20.23828125 C-91.12109375 19.57828125 -91.12109375 18.91828125 -91.12109375 18.23828125 C-87.33287959 16.93633709 -83.53995805 15.64865849 -79.74609375 14.36328125 C-78.68519531 13.99847656 -77.62429688 13.63367188 -76.53125 13.2578125 C-70.71015407 11.29363903 -65.02274494 9.66138943 -58.96240234 8.62841797 C-57.11232822 8.41124298 -57.11232822 8.41124298 -56.12109375 7.23828125 C-52.60536854 6.56204963 -49.04416643 6.14931075 -45.49609375 5.67578125 C-44.50996094 5.53720703 -43.52382813 5.39863281 -42.5078125 5.25585938 C-37.32898982 4.5540563 -32.34667081 4.06995034 -27.12109375 4.23828125 C-26.79109375 3.24828125 -26.46109375 2.25828125 -26.12109375 1.23828125 C-17.40385401 0.37672448 -8.75713263 0.05238745 0 0 Z " fill="#284294" transform="translate(735.12109375,480.76171875)"/>
<path d="M0 0 C1.23896027 -0.00003525 2.47792053 -0.0000705 3.75442505 -0.00010681 C7.09001837 0.00560861 10.4243215 0.02987135 13.759655 0.06545639 C15.82512952 0.08594654 17.89054308 0.09983536 19.95608521 0.11148071 C76.70736792 0.43758174 76.70736792 0.43758174 100.51171875 7.4609375 C100.51171875 8.1209375 100.51171875 8.7809375 100.51171875 9.4609375 C102.13980469 9.84185547 102.13980469 9.84185547 103.80078125 10.23046875 C105.24618599 10.57774132 106.6914934 10.92541914 108.13671875 11.2734375 C108.84957031 11.43908203 109.56242188 11.60472656 110.296875 11.77539062 C114.72366375 12.85162826 118.46021405 14.3187626 122.51171875 16.4609375 C123.79259434 16.89040755 125.08442935 17.28909208 126.38671875 17.6484375 C138.88999515 21.71094986 150.01023552 28.70128639 160.51171875 36.4609375 C161.51847656 37.18152344 162.52523437 37.90210938 163.5625 38.64453125 C178.57361507 49.56701576 191.2157545 62.4295548 201.93383789 77.59863281 C204.23130452 81.06023886 204.23130452 81.06023886 207.51171875 83.4609375 C210.21957672 88.42534378 212.38691387 93.48823888 214.38671875 98.7734375 C215.32009269 101.00316414 216.33837837 103.08824687 217.44921875 105.23046875 C219.56627565 109.42243744 221.1117219 113.67130472 222.51171875 118.1484375 C222.76663086 118.96006348 223.02154297 119.77168945 223.28417969 120.60791016 C226.14647812 130.07009849 227.9055262 139.71912692 229.51171875 149.4609375 C229.69049561 150.46447266 229.86927246 151.46800781 230.0534668 152.50195312 C231.40037022 160.44538353 231.86172107 168.15969295 231.82421875 176.2109375 C231.82075439 177.42652344 231.81729004 178.64210938 231.8137207 179.89453125 C231.50809447 205.31723068 231.50809447 205.31723068 225.51171875 211.4609375 C223.51574655 212.13956805 221.51603324 212.80735669 219.51171875 213.4609375 C219.18171875 214.4509375 218.85171875 215.4409375 218.51171875 216.4609375 C215.98381805 217.65466839 213.406509 218.49680446 210.76171875 219.3984375 C210.01921875 219.7490625 209.27671875 220.0996875 208.51171875 220.4609375 C208.18171875 221.4509375 207.85171875 222.4409375 207.51171875 223.4609375 C201.38775252 227.63636902 194.42693 229.90937894 187.51171875 232.4609375 C186.59003906 232.82445312 185.66835938 233.18796875 184.71875 233.5625 C177.47233224 236.36687438 170.12857429 237.98458402 162.51171875 239.4609375 C161.76196777 239.63512207 161.0122168 239.80930664 160.23974609 239.98876953 C155.08286497 240.8813244 149.82500353 240.64685202 144.60400391 240.64624023 C142.54567998 240.64840183 140.48791502 240.6665121 138.4296875 240.68554688 C127.1879577 240.73456531 116.4593891 239.51261945 105.63671875 236.3984375 C101.98273018 235.35274963 98.52381684 234.46264961 94.7578125 233.9296875 C91.13722006 233.40685827 88.72540387 232.17034448 85.51171875 230.4609375 C84.52171875 230.1515625 83.53171875 229.8421875 82.51171875 229.5234375 C79.51171875 228.4609375 79.51171875 228.4609375 76.44921875 226.3984375 C73.59543848 224.51615689 71.80287301 224.02513537 68.51171875 223.4609375 C68.18171875 222.8009375 67.85171875 222.1409375 67.51171875 221.4609375 C65.85806469 220.43956293 64.18795373 219.44481456 62.51171875 218.4609375 C60.77548477 217.24398811 59.06316713 215.99879575 57.35546875 214.7421875 C55.47555728 213.39452212 55.47555728 213.39452212 53.21484375 212.15625 C49.78510511 210.00522895 46.81525805 207.48461522 43.76171875 204.8359375 C43.14337158 204.30105713 42.52502441 203.76617676 41.88793945 203.21508789 C34.03502758 196.3656776 27.06525644 189.15371533 20.5625 181 C18.93758289 178.98819787 17.27100218 177.10107672 15.51171875 175.2109375 C10.39122852 169.31591934 0.51171875 156.34257274 0.51171875 148.4609375 C-0.14828125 148.4609375 -0.80828125 148.4609375 -1.48828125 148.4609375 C-1.82601563 147.38972656 -2.16375 146.31851563 -2.51171875 145.21484375 C-2.96184374 143.81758075 -3.41238621 142.42045219 -3.86328125 141.0234375 C-4.085 140.31638672 -4.30671875 139.60933594 -4.53515625 138.88085938 C-5.12930731 137.0547186 -5.80377744 135.25516718 -6.48828125 133.4609375 C-7.14828125 133.1309375 -7.80828125 132.8009375 -8.48828125 132.4609375 C-9.26184942 130.12563737 -9.93558151 127.8375266 -10.55078125 125.4609375 C-11.38604984 121.11465589 -11.38604984 121.11465589 -13.48828125 117.4609375 C-13.82204389 116.0955449 -14.10342067 114.71730165 -14.36328125 113.3359375 C-14.53472656 112.44648437 -14.70617187 111.55703125 -14.8828125 110.640625 C-15.08261719 109.59132813 -15.28242188 108.54203125 -15.48828125 107.4609375 C-16.0034197 104.7931344 -16.52605221 102.12686857 -17.05078125 99.4609375 C-17.29957031 98.1821875 -17.54835937 96.9034375 -17.8046875 95.5859375 C-18.32948986 92.57373138 -18.32948986 92.57373138 -19.48828125 90.4609375 C-20.81773199 82.44200041 -20.63387726 74.26790981 -20.62109375 66.16796875 C-20.62176921 64.80897504 -20.62274125 63.44998146 -20.62399292 62.09098816 C-20.625457 59.26124913 -20.6233562 56.43154193 -20.61865234 53.60180664 C-20.61293935 49.99088685 -20.61625218 46.38004115 -20.62222481 42.76912403 C-20.62585143 39.96973622 -20.62468248 37.17036576 -20.62209702 34.3709774 C-20.62111465 32.397449 -20.6241278 30.42391989 -20.62722778 28.45039368 C-20.61219574 22.68738202 -20.54817262 17.133514 -19.48828125 11.4609375 C-18.82828125 11.4609375 -18.16828125 11.4609375 -17.48828125 11.4609375 C-17.59140625 10.3884375 -17.69453125 9.3159375 -17.80078125 8.2109375 C-17.48828125 4.4609375 -17.48828125 4.4609375 -15.74926758 2.25537109 C-10.65844697 -0.54597138 -5.71658594 -0.06880927 0 0 Z " fill="#294294" transform="translate(265.48828125,482.5390625)"/>
<path d="M0 0 C2.8515625 2.1171875 2.8515625 2.1171875 5.625 4.875 C8.67909371 7.8777644 11.16464648 10.15066811 15 12 C16.60546875 13.59375 16.60546875 13.59375 18.1875 15.5 C20.84856501 18.65469541 23.5737374 21.71896543 26.375 24.75 C39.35789125 39.20265252 39.35789125 39.20265252 42 49 C43.21185747 51.12430552 43.21185747 51.12430552 44.625 52.8125 C47 56 47 56 47 58 C47.66 58 48.32 58 49 58 C56.05938882 65.58380056 59.41895798 74.81535417 62.75390625 84.4375 C63.63437448 86.95470072 64.55110523 89.430386 65.515625 91.9140625 C74.63423585 116.26532881 72.85506197 145.8577148 68 171 C67.34 171 66.68 171 66 171 C66.061875 172.27875 66.12375 173.5575 66.1875 174.875 C66.29296875 177.0546875 66.29296875 177.0546875 66 179 C65.01 179.66 64.02 180.32 63 181 C60.76395235 184.90711528 59.24395672 189.10549203 58.0625 193.4375 C55.67048221 201.45779496 51.33060687 209.52823682 46 216 C45.34 216 44.68 216 44 216 C43.74130127 216.74475586 43.48260254 217.48951172 43.21606445 218.25683594 C41.95970133 221.0909046 40.70408055 222.69547773 38.54296875 224.890625 C37.84905029 225.59598389 37.15513184 226.30134277 36.44018555 227.02807617 C35.69679932 227.76131104 34.95341309 228.4945459 34.1875 229.25 C33.42284424 230.00708252 32.65818848 230.76416504 31.87036133 231.54418945 C22.20295271 240.93512694 9.90322297 251.34946284 -3.75 253.625 C-8.01417506 252.80496634 -11.27714443 251.18780529 -15 249 C-15.63808594 248.63777344 -16.27617187 248.27554688 -16.93359375 247.90234375 C-22.71139918 244.47286165 -27.82193679 240.26120547 -33 236 C-33.56847656 235.5565625 -34.13695312 235.113125 -34.72265625 234.65625 C-39.05878684 231.23359759 -42.49474172 227.23579969 -46 223 C-47.27423828 221.49953125 -47.27423828 221.49953125 -48.57421875 219.96875 C-66.32456171 198.60758393 -76.41420466 170.68534365 -78 143 C-78.04382813 142.25782227 -78.08765625 141.51564453 -78.1328125 140.75097656 C-79.14480029 120.30039002 -75.03162112 101.1059191 -68 82 C-67.50886719 80.30037109 -67.50886719 80.30037109 -67.0078125 78.56640625 C-66.67523438 77.71949219 -66.34265625 76.87257813 -66 76 C-64.515 75.505 -64.515 75.505 -63 75 C-61.63330354 72.65355639 -61.63330354 72.65355639 -60.5 69.8125 C-57.54862604 62.89758216 -54.28097801 56.66753627 -50 50.5 C-49.516521 49.80221436 -49.03304199 49.10442871 -48.53491211 48.38549805 C-40.6008496 37.04396448 -31.95362507 26.60781806 -22.45214844 16.55371094 C-19.32354929 13.20629921 -16.29742417 9.76444513 -13.25390625 6.33984375 C-6.07825811 -1.10939929 -6.07825811 -1.10939929 0 0 Z " fill="#F17628" transform="translate(520,305)"/>
<path d="M0 0 C0.84884766 -0.00161133 1.69769531 -0.00322266 2.57226562 -0.00488281 C8.16415185 0.10165185 8.16415185 0.10165185 10.4375 2.375 C14.55760428 17.40155257 12.4403513 37.48889435 8.4375 52.375 C8.26589355 53.05916992 8.09428711 53.74333984 7.91748047 54.44824219 C5.29720557 64.84972663 1.5332053 73.94432266 -3.5625 83.375 C-4.25666016 84.83873047 -4.25666016 84.83873047 -4.96484375 86.33203125 C-6.8544317 89.93102639 -9.09768872 93.10528658 -11.5 96.375 C-12.36420674 97.56182664 -13.22749774 98.74932067 -14.08984375 99.9375 C-14.71415283 100.79214844 -14.71415283 100.79214844 -15.35107422 101.6640625 C-16.54350338 103.34817044 -17.64979432 105.06964985 -18.75390625 106.8125 C-19.64916016 108.0809375 -19.64916016 108.0809375 -20.5625 109.375 C-21.2225 109.375 -21.8825 109.375 -22.5625 109.375 C-22.92601562 110.22191406 -22.92601562 110.22191406 -23.296875 111.0859375 C-32.05913146 126.93372233 -57.07269158 140.60473987 -73.5625 146.375 C-76.74701594 147.06580083 -79.89816739 147.59550291 -83.12890625 148.015625 C-85.56446675 148.24608738 -85.56446675 148.24608738 -87.5625 149.375 C-90.04349734 149.46149451 -92.49594928 149.49065054 -94.9765625 149.47265625 C-95.70620209 149.4712413 -96.43584167 149.46982635 -97.18759155 149.46836853 C-99.52093585 149.46276531 -101.85418464 149.45021235 -104.1875 149.4375 C-105.76822778 149.43248541 -107.34895707 149.42792243 -108.9296875 149.42382812 C-112.80732854 149.41279484 -116.68489807 149.39552811 -120.5625 149.375 C-120.5625 148.715 -120.5625 148.055 -120.5625 147.375 C-121.738125 147.33375 -122.91375 147.2925 -124.125 147.25 C-128.84949046 146.7309079 -132.98305534 145.29196491 -137.375 143.5625 C-138.02090088 143.31419434 -138.66680176 143.06588867 -139.33227539 142.81005859 C-143.22599917 141.21687196 -145.92695774 139.6567094 -148.5625 136.375 C-149.06420898 133.60449219 -149.06420898 133.60449219 -149.05859375 130.421875 C-149.06141357 129.25269531 -149.0642334 128.08351563 -149.06713867 126.87890625 C-149.04498291 125.64011719 -149.02282715 124.40132812 -149 123.125 C-148.98751221 121.86042969 -148.97502441 120.59585938 -148.9621582 119.29296875 C-148.78701652 109.96801911 -147.86225099 101.40598563 -145.5625 92.375 C-145.31113281 91.22515625 -145.05976562 90.0753125 -144.80078125 88.890625 C-143.67349663 83.904329 -142.76977024 80.40096817 -139.5625 76.375 C-139.15 75.364375 -138.7375 74.35375 -138.3125 73.3125 C-134.29848209 63.48871932 -127.22096114 53.65053808 -119.5625 46.375 C-118.82 45.6325 -118.0775 44.89 -117.3125 44.125 C-116.405 43.2175 -115.4975 42.31 -114.5625 41.375 C-113.62470703 40.385 -113.62470703 40.385 -112.66796875 39.375 C-97.26731708 23.39162097 -97.26731708 23.39162097 -88.5625 22.375 C-88.5625 21.715 -88.5625 21.055 -88.5625 20.375 C-82.4975436 17.66504919 -76.42091961 14.98561005 -70.3125 12.375 C-69.55582031 12.045 -68.79914063 11.715 -68.01953125 11.375 C-55.72212127 6.13683535 -43.76633904 3.51547935 -30.5625 2.125 C-29.79946564 2.0409491 -29.03643127 1.95689819 -28.25027466 1.87030029 C-18.84143903 0.83925236 -9.47454104 0.01702829 0 0 Z " fill="#FDFDFD" transform="translate(731.5625,527.625)"/>
<path d="M0 0 C1.89797769 0.99918724 3.77872041 2.03323715 5.625 3.125 C8.93748069 5.0064515 11.75906333 6.3430891 15.5 7.0625 C19 8 19 8 20.6875 10.4375 C21.120625 11.283125 21.55375 12.12875 22 13 C23.64885096 14.02911043 25.31868158 15.02483532 27 16 C33.267448 20.66345657 39.01776234 25.82340362 44.5625 31.3125 C45.07498291 31.81579834 45.58746582 32.31909668 46.11547852 32.83764648 C48.6851856 35.42897318 50.39215645 37.76494129 52 41 C52.79277344 41.77988281 53.58554687 42.55976562 54.40234375 43.36328125 C61.14438869 50.20671033 64.67197579 60.11086173 68 69 C68.70519132 70.75126849 69.41352216 72.50127607 70.125 74.25 C70.76539443 75.82716975 71.38996757 77.41083988 72 79 C72.34546875 79.89847656 72.6909375 80.79695312 73.046875 81.72265625 C74.25171449 85.86552647 74.71907309 89.90151192 75.125 94.1875 C75.20991699 95.05084961 75.29483398 95.91419922 75.38232422 96.80371094 C76.19969266 105.87206019 76.18520609 114.90432291 76 124 C72.535 124.99 72.535 124.99 69 126 C68.67 127.32 68.34 128.64 68 130 C65.0835095 130.81313676 62.16681631 131.6255335 59.25 132.4375 C58.0125 132.78264648 58.0125 132.78264648 56.75 133.13476562 C55.95078125 133.35712891 55.1515625 133.57949219 54.328125 133.80859375 C53.5949707 134.01282959 52.86181641 134.21706543 52.10644531 134.42749023 C51.06375488 134.71088257 51.06375488 134.71088257 50 135 C49.37730225 135.1846582 48.75460449 135.36931641 48.11303711 135.55957031 C32.85337238 138.74020985 14.74125464 136.77864116 0 132 C0 131.34 0 130.68 0 130 C-0.99 129.896875 -1.98 129.79375 -3 129.6875 C-14.25974533 128.02105769 -24.18377554 121.60342088 -33.0625 114.8125 C-33.62283936 114.38445068 -34.18317871 113.95640137 -34.76049805 113.51538086 C-37.36051001 111.47448545 -39.14854981 109.77717529 -41 107 C-43.05003955 105.80767387 -43.05003955 105.80767387 -45 105 C-45 104.01 -45 103.02 -45 102 C-45.87205078 101.62875 -45.87205078 101.62875 -46.76171875 101.25 C-60.94251863 93.33053061 -71.00974332 71.19042385 -75.89453125 56.25390625 C-76.95614574 52.94971104 -76.95614574 52.94971104 -78.50390625 49.70703125 C-80.30908881 45.23413766 -81.23405339 40.8505808 -82.125 36.125 C-82.29386719 35.27808594 -82.46273438 34.43117188 -82.63671875 33.55859375 C-84.63877965 23.26453257 -85.13500277 13.42809261 -85.0625 2.9375 C-85.05798828 1.69033203 -85.05347656 0.44316406 -85.04882812 -0.84179688 C-85.03713163 -3.89458221 -85.02074086 -6.94726498 -85 -10 C-62.01344626 -21.12537428 -22.20372663 -9.81909013 0 0 Z " fill="#FDFDFD" transform="translate(375,541)"/>
<path d="M0 0 C3.78263276 0.72168651 4.64705296 1.80773564 6.90625 4.87890625 C7.58171875 5.79285156 8.2571875 6.70679688 8.953125 7.6484375 C19.66867803 23.16106951 27.38217241 38.70125885 29.96875 57.56640625 C30.1440625 58.34757812 30.319375 59.12875 30.5 59.93359375 C33.46598163 76.5925239 30.5052576 96.58419234 22.96875 111.56640625 C22.45054687 112.78070313 22.45054687 112.78070313 21.921875 114.01953125 C18.32032729 122.10996452 12.68586357 128.87629996 6.96875 135.56640625 C6.1540625 136.54996094 5.339375 137.53351563 4.5 138.546875 C1.96875 140.56640625 1.96875 140.56640625 -1.078125 140.62890625 C-11.55327772 136.86006823 -18.22165784 121.9281823 -23.03125 112.56640625 C-28.7635401 100.07254744 -30.57620478 87.01889491 -30.46875 73.37890625 C-30.46537628 72.701091 -30.46200256 72.02327576 -30.45852661 71.32492065 C-30.26874912 44.93498334 -21.41268181 23.43072501 -5.33984375 2.55078125 C-3.03125 0.56640625 -3.03125 0.56640625 0 0 Z " fill="#FDFDFD" transform="translate(517.03125,366.43359375)"/>
<path d="M0 0 C7.03892499 7.03892499 6.20920937 22.04213549 6.25 31.5 C5.97736941 65.1828605 5.97736941 65.1828605 -2 76 C-2.99 76.495 -2.99 76.495 -4 77 C-4.90031042 78.59989589 -5.74522506 80.23113645 -6.5625 81.875 C-10.38967426 89.07798644 -15.70208474 97.87627093 -23 102 C-26.87307353 102.59666268 -28.54355326 102.27460031 -31.921875 100.2421875 C-32.85515625 99.46101563 -33.7884375 98.67984375 -34.75 97.875 C-36.16539062 96.72644531 -36.16539062 96.72644531 -37.609375 95.5546875 C-40.2269493 92.75747575 -41.00610929 90.65280453 -42 87 C-42.97753644 85.97803008 -43.9805881 84.98020375 -45 84 C-49.18178781 78.03437264 -49.18178781 78.03437264 -48.609375 74.77734375 C-48.40828125 74.19082031 -48.2071875 73.60429687 -48 73 C-47.5875 73.73863281 -47.175 74.47726562 -46.75 75.23828125 C-39.23610418 89.2123229 -39.23610418 89.2123229 -28 100 C-24.6004177 100.03661089 -23.34388409 99.30074669 -20.7890625 97.06640625 C-18.4888467 94.40496523 -16.21804762 91.7304931 -14 89 C-13.37609375 88.24460937 -12.7521875 87.48921875 -12.109375 86.7109375 C-0.18782247 71.08403757 4.11005806 50.39246126 4.25 31.125 C4.25918457 30.43607666 4.26836914 29.74715332 4.27783203 29.03735352 C4.25232566 24.79666357 3.62845446 21.08285086 2.5078125 16.99951172 C1.66895296 13.69650228 1.29768092 10.38144737 0.875 7 C0.78863281 6.32066406 0.70226562 5.64132812 0.61328125 4.94140625 C0.40455775 3.29480976 0.20164449 1.64747838 0 0 Z " fill="#C0AC9F" transform="translate(543,406)"/>
<path d="M0 0 C6.04947463 6.91368529 8.78853188 14.88166575 11.75390625 23.4375 C12.63437448 25.95470072 13.55110523 28.430386 14.515625 30.9140625 C23.63423585 55.26532881 21.85506197 84.8577148 17 110 C16.34 110 15.68 110 15 110 C15 112.64 15 115.28 15 118 C14.01 118.495 14.01 118.495 13 119 C13.08816663 116.66510447 13.19516229 114.33347062 13.3125 112 C13.37050781 110.700625 13.42851563 109.40125 13.48828125 108.0625 C13.74645123 105.00221456 14.2873671 103.29995061 15.50488281 100.33398438 C17.28816049 95.71554818 17.45101922 91.50396549 17.43359375 86.59375 C17.4388356 85.71078247 17.44407745 84.82781494 17.44947815 83.91809082 C17.4558702 82.05575606 17.45459807 80.19338078 17.44604492 78.33105469 C17.43760576 75.53504013 17.46622024 72.74112218 17.49804688 69.9453125 C17.53574377 59.92394235 16.76113498 50.96311083 13.93286133 41.33007812 C12.69632943 36.91597316 12.21954069 32.56644628 12 28 C11.34 28 10.68 28 10 28 C7.94990063 23.70076248 6.00793761 19.5481653 5 14.875 C4.36374338 11.97135616 3.42058173 9.78994201 1.875 7.25 C0 4 0 4 0 0 Z " fill="#C8AC9A" transform="translate(571,366)"/>
<path d="M0 0 C1.30292496 -0.00807175 2.60584991 -0.01614349 3.94825745 -0.02445984 C6.68026587 -0.03932763 9.41224976 -0.04924752 12.14428711 -0.05688477 C15.63677484 -0.06805073 19.12864323 -0.10263191 22.62090969 -0.14205647 C25.97641487 -0.17446307 29.33185049 -0.17898779 32.6875 -0.1875 C33.93647568 -0.20500809 35.18545135 -0.22251617 36.47227478 -0.24055481 C37.63440994 -0.23762924 38.7965451 -0.23470367 39.99389648 -0.23168945 C41.01249252 -0.23755569 42.03108856 -0.24342194 43.08055115 -0.24946594 C46.64099278 0.37111127 48.31280333 1.74122667 50.87890625 4.23828125 C51.8137207 6.81494141 51.8137207 6.81494141 52.2421875 9.77734375 C52.40686523 10.89987549 52.57154297 12.02240723 52.74121094 13.17895508 C52.88977539 14.39478271 53.03833984 15.61061035 53.19140625 16.86328125 C53.35672852 18.11971436 53.52205078 19.37614746 53.69238281 20.6706543 C55.58804321 36.12964648 55.24965506 51.69677621 54.87890625 67.23828125 C54.54890625 67.23828125 54.21890625 67.23828125 53.87890625 67.23828125 C53.87890625 56.67828125 53.87890625 46.11828125 53.87890625 35.23828125 C53.21890625 35.23828125 52.55890625 35.23828125 51.87890625 35.23828125 C51.83403076 34.65973389 51.78915527 34.08118652 51.74291992 33.48510742 C51.52821456 30.79768077 51.29736882 28.11185772 51.06640625 25.42578125 C50.99615234 24.51634766 50.92589844 23.60691406 50.85351562 22.66992188 C50.73266602 21.3019043 50.73266602 21.3019043 50.609375 19.90625 C50.54129639 19.08406982 50.47321777 18.26188965 50.40307617 17.41479492 C49.61028878 12.61043687 48.16011155 7.93603403 46.87890625 3.23828125 C22.45890625 3.23828125 -1.96109375 3.23828125 -27.12109375 3.23828125 C-26.79109375 2.57828125 -26.46109375 1.91828125 -26.12109375 1.23828125 C-17.62060287 -0.31077426 -8.61261576 0.05152292 0 0 Z " fill="#9FA5BB" transform="translate(735.12109375,480.76171875)"/>
<path d="M0 0 C1.093125 0.226875 2.18625 0.45375 3.3125 0.6875 C3.3125 1.6775 3.3125 2.6675 3.3125 3.6875 C2.8175 3.1925 2.8175 3.1925 2.3125 2.6875 C-0.52580457 2.14939913 -0.52580457 2.14939913 -3.6875 2.6875 C-19.27746264 16.93905567 -28.3638264 42.01893931 -29.99316406 62.53662109 C-30.12270161 66.38368837 -30.15444491 70.21342274 -30.125 74.0625 C-30.12328796 74.73261108 -30.12157593 75.40272217 -30.11981201 76.09313965 C-30.0820451 93.66463641 -30.0820451 93.66463641 -23.6875 109.6875 C-24.0625 111.875 -24.0625 111.875 -24.6875 113.6875 C-28.08310708 109.3863977 -29.32256574 105.84209346 -30.1953125 100.4453125 C-30.65898431 97.54855552 -30.65898431 97.54855552 -31.70703125 94.26171875 C-37.42166497 71.59402507 -32.54437637 42.08543099 -20.8125 22.25 C-19.18276486 19.66888397 -17.46536528 17.16838401 -15.6875 14.6875 C-15.26581543 14.08824707 -14.84413086 13.48899414 -14.40966797 12.87158203 C-4.9869907 -0.42262633 -4.9869907 -0.42262633 0 0 Z " fill="#C59F87" transform="translate(517.6875,365.3125)"/>
<path d="M0 0 C0.33 0 0.66 0 1 0 C3.12895576 16.07018217 6.27536993 41.76689876 -2.41015625 56.37109375 C-4.60360793 58.61843859 -7.05348759 59.03918074 -10 60 C-10.33 60.99 -10.66 61.98 -11 63 C-13.5279007 64.19373089 -16.10520975 65.03586696 -18.75 65.9375 C-19.4925 66.288125 -20.235 66.63875 -21 67 C-21.495 68.485 -21.495 68.485 -22 70 C-28.12517604 74.17625639 -35.08540905 76.44354912 -42 79 C-42.93328125 79.37511719 -43.8665625 79.75023437 -44.828125 80.13671875 C-51.77191406 82.86753638 -58.60477992 84.1064599 -66 85 C-63.24751679 82.73680382 -61.033348 81.51899393 -57.578125 80.67578125 C-56.72524902 80.45607666 -55.87237305 80.23637207 -54.99365234 80.01000977 C-54.08824707 79.77983154 -53.1828418 79.54965332 -52.25 79.3125 C-37.56971274 75.34454712 -23.2729854 68.74447132 -11.51171875 58.921875 C-9.05632029 57.04309422 -6.90850726 55.99720249 -4 55 C-3.86722656 54.01257813 -3.73445313 53.02515625 -3.59765625 52.0078125 C-3.42105469 50.72648438 -3.24445313 49.44515625 -3.0625 48.125 C-2.88847656 46.84882812 -2.71445312 45.57265625 -2.53515625 44.2578125 C-2 41 -2 41 -1 39 C-0.84279903 36.0851463 -0.74144346 33.19060364 -0.68359375 30.2734375 C-0.6524221 28.97921371 -0.6524221 28.97921371 -0.62062073 27.65884399 C-0.55513966 24.89764507 -0.49624702 22.13634962 -0.4375 19.375 C-0.3943134 17.50519828 -0.35069907 15.63540638 -0.30664062 13.765625 C-0.19945976 9.17718272 -0.09818825 4.58864317 0 0 Z " fill="#8088A7" transform="translate(495,636)"/>
<path d="M0 0 C1.53009223 3.95273826 0.43308348 6.85602879 -0.75 10.8125 C-1.09546875 11.99457031 -1.4409375 13.17664063 -1.796875 14.39453125 C-3 18 -3 18 -4.43994141 21.15478516 C-10.10035249 34.27707039 -10.61393466 49.24309259 -10.41162109 63.31176758 C-10.37466545 65.96148753 -10.37060712 68.60981195 -10.37109375 71.25976562 C-10.390703 88.00251834 -10.390703 88.00251834 -6 104 C-11.91086759 98.62897945 -12.87374954 92.31492071 -13.3125 84.54101562 C-13.51599058 79.27719128 -13.52472779 74.01701968 -13.5 68.75 C-13.49923462 67.81546997 -13.49846924 66.88093994 -13.49768066 65.91809082 C-13.45465501 51.37604401 -12.21120002 37.98043928 -8 24 C-7.63326532 22.62529965 -7.27224491 21.24905739 -6.91796875 19.87109375 C-5.0988145 13.03658198 -2.8107439 6.48863218 0 0 Z " fill="#7E84A2" transform="translate(550,589)"/>
<path d="M0 0 C1.56758435 3.1351687 0.36516157 5.63192532 -0.375 9 C-2.39693753 18.22154686 -3.15592572 27.27206738 -3.1328125 36.70703125 C-3.13376923 37.59428391 -3.13472595 38.48153656 -3.13571167 39.39567566 C-3.136387 41.25865755 -3.13457829 43.12164188 -3.13037109 44.98461914 C-3.12503297 47.79514003 -3.13032842 50.60549973 -3.13671875 53.41601562 C-3.14332992 66.69498333 -2.72746654 79.6255019 -0.125 92.6875 C0.03613281 93.54666016 0.19726562 94.40582031 0.36328125 95.29101562 C1.38175442 100.53733671 2.70401184 105.59003992 4.35131836 110.67456055 C5.39590919 114.41928303 5.68800777 118.13129639 6 122 C3.4929146 118.23937191 1.86947156 115.13737174 1.0625 110.6875 C0.90007812 109.82511719 0.73765625 108.96273437 0.5703125 108.07421875 C0.38210937 107.05972656 0.19390625 106.04523438 0 105 C-0.51599336 102.33226115 -1.03662513 99.66577369 -1.5625 97 C-1.81128906 95.72125 -2.06007812 94.4425 -2.31640625 93.125 C-2.84120861 90.11279388 -2.84120861 90.11279388 -4 88 C-5.32945074 79.98106291 -5.14559601 71.80697231 -5.1328125 63.70703125 C-5.13348796 62.34803754 -5.13446 60.98904396 -5.13571167 59.63005066 C-5.13717575 56.80031163 -5.13507495 53.97060443 -5.13037109 51.14086914 C-5.1246581 47.52994935 -5.12797093 43.91910365 -5.13394356 40.30818653 C-5.13757018 37.50879872 -5.13640123 34.70942826 -5.13381577 31.9100399 C-5.1328334 29.9365115 -5.13584655 27.96298239 -5.13894653 25.98945618 C-5.12391449 20.22644452 -5.05989137 14.6725765 -4 9 C-3.34 9 -2.68 9 -2 9 C-2.04125 7.88625 -2.0825 6.7725 -2.125 5.625 C-2 2 -2 2 0 0 Z " fill="#939AB5" transform="translate(250,485)"/>
<path d="M0 0 C0.66 0 1.32 0 2 0 C2.02518048 4.81567018 2.04308077 9.63130002 2.05493164 14.44702148 C2.05988474 16.07691111 2.06664905 17.70679648 2.07543945 19.33666992 C2.15647471 34.77627059 1.89510554 50.02342898 -0.9375 65.25 C-1.10701172 66.22839844 -1.27652344 67.20679688 -1.45117188 68.21484375 C-2.26161311 72.73236027 -3.19202544 76.76204344 -5 81 C-5.33 81 -5.66 81 -6 81 C-5.64742631 71.74798009 -4.84224793 63.02376496 -2.71875 53.98828125 C-0.3248578 42.17225481 -0.72225178 29.70170042 -0.4375 17.6875 C-0.39418595 15.964185 -0.35056819 14.2408776 -0.30664062 12.51757812 C-0.20093287 8.34513131 -0.09930969 4.1726038 0 0 Z " fill="#4E629C" transform="translate(787,516)"/>
<path d="M0 0 C0.98742187 -0.00128906 1.97484375 -0.00257813 2.9921875 -0.00390625 C4.5390625 0.00189453 4.5390625 0.00189453 6.1171875 0.0078125 C7.12523437 0.00394531 8.13328125 0.00007812 9.171875 -0.00390625 C25.87710765 0.01773265 25.87710765 0.01773265 27.9921875 2.1328125 C29.3257126 2.29940975 30.66652264 2.40860906 32.0078125 2.4921875 C42.54829644 3.26836152 51.35412424 4.52483335 60.9921875 9.1328125 C57.17477419 10.56434249 54.7898096 9.61883101 50.9921875 8.3828125 C33.57279118 3.24971191 8.50117992 -0.70351831 -9.0078125 5.1328125 C-9.3378125 13.0528125 -9.6678125 20.9728125 -10.0078125 29.1328125 C-10.3378125 29.1328125 -10.6678125 29.1328125 -11.0078125 29.1328125 C-11.09475292 25.02877887 -11.14818399 20.92498121 -11.1953125 16.8203125 C-11.22044922 15.65306641 -11.24558594 14.48582031 -11.27148438 13.28320312 C-11.28598633 11.60581055 -11.28598633 11.60581055 -11.30078125 9.89453125 C-11.3164917 8.86287842 -11.33220215 7.83122559 -11.34838867 6.76831055 C-11.0078125 4.1328125 -11.0078125 4.1328125 -9.67700195 2.33520508 C-6.54886566 0.08186717 -3.72018483 0.00471165 0 0 Z " fill="#6A749B" transform="translate(300.0078125,525.8671875)"/>
<path d="M0 0 C-3.00940729 2.00627153 -4.96379396 2.62097149 -8.4375 3.4375 C-9.50613281 3.69273437 -10.57476563 3.94796875 -11.67578125 4.2109375 C-13.32126953 4.60152344 -13.32126953 4.60152344 -15 5 C-17.94114132 5.74730886 -20.88088748 6.49987983 -23.8203125 7.25390625 C-24.86960937 7.50011719 -25.91890625 7.74632812 -27 8 C-27.98323242 8.25922241 -27.98323242 8.25922241 -28.98632812 8.52368164 C-36.58431133 10.32731654 -44.17719517 10.33789735 -51.93896484 10.31567383 C-54.23193461 10.31252481 -56.52359604 10.33600543 -58.81640625 10.36132812 C-68.0977445 10.40119813 -77.09903357 9.95013741 -86 7 C-86.33 6.34 -86.66 5.68 -87 5 C-85.64567321 5.14433868 -84.29154775 5.29056661 -82.9375 5.4375 C-81.80634766 5.55931641 -81.80634766 5.55931641 -80.65234375 5.68359375 C-78.70009269 5.91648379 -76.75342214 6.19739074 -74.81152344 6.50488281 C-68.01142106 7.38821663 -61.16050101 7.29073284 -54.3125 7.3125 C-53.52888092 7.31511841 -52.74526184 7.31773682 -51.93789673 7.32043457 C-39.54805493 7.32487191 -27.96853725 6.41836224 -16 3 C-15.29536621 2.8026123 -14.59073242 2.60522461 -13.86474609 2.40185547 C-10.74519898 1.52183463 -7.64544152 0.61485149 -4.5546875 -0.36328125 C-2 -1 -2 -1 0 0 Z " fill="#8187A7" transform="translate(681,713)"/>
<path d="M0 0 C2 2 2 2 3 4 C2.46375 3.67 1.9275 3.34 1.375 3 C-1.8556749 1.63971583 -3.50241553 1.39464884 -7 2 C-12.21105654 5.49172628 -16.27751526 10.29909669 -20.30078125 15.0546875 C-21.87454351 16.85637395 -23.51297655 18.48287332 -25.25 20.125 C-30.21956173 25.01673862 -34.34753018 30.64311436 -38.5859375 36.16259766 C-39.95525066 37.94185367 -41.33517597 39.71228929 -42.71875 41.48046875 C-47.40525604 47.48905548 -51.90873277 53.56373814 -56 60 C-56 47.2053645 -37.1229512 30.43269837 -29 21 C-28.38511719 20.27167969 -27.77023437 19.54335938 -27.13671875 18.79296875 C-9.62754956 -1.72493596 -9.62754956 -1.72493596 0 0 Z " fill="#CEBDAD" transform="translate(521,304)"/>
<path d="M0 0 C1.58357459 0.31127516 3.16684993 0.62407289 4.75 0.9375 C5.63171875 1.11152344 6.5134375 1.28554688 7.421875 1.46484375 C9.63235053 1.92368488 11.81512068 2.43336074 14 3 C14 3.66 14 4.32 14 5 C14.556875 5.04898438 15.11375 5.09796875 15.6875 5.1484375 C16.450625 5.22320313 17.21375 5.29796875 18 5.375 C19.11375 5.47941406 19.11375 5.47941406 20.25 5.5859375 C23 6 23 6 26.40625 7.02734375 C32.65627395 8.63675423 39.09323046 8.24879336 45.5 8.1875 C47.42005859 8.1865332 47.42005859 8.1865332 49.37890625 8.18554688 C55.67287442 8.15625747 61.77980519 7.98172267 68 7 C68 7.66 68 8.32 68 9 C61.01489167 11.64301396 54.0116028 11.29449761 46.625 11.25 C45.34882813 11.25773438 44.07265625 11.26546875 42.7578125 11.2734375 C35.88697793 11.25924156 29.61004773 10.90237036 23 9 C21.91589844 8.71898437 20.83179688 8.43796875 19.71484375 8.1484375 C18.79832031 7.89320313 17.88179688 7.63796875 16.9375 7.375 C15.99777344 7.11460937 15.05804688 6.85421875 14.08984375 6.5859375 C13.40019531 6.39257812 12.71054687 6.19921875 12 6 C12 5.34 12 4.68 12 4 C10.7625 4.04125 9.525 4.0825 8.25 4.125 C4.98362038 4.13658291 2.7853053 3.8568702 0 2 C0 1.34 0 0.68 0 0 Z " fill="#7682A4" transform="translate(361,668)"/>
<path d="M0 0 C0 7.4945192 -6.33776821 16.33969513 -11 22 C-11.66 22 -12.32 22 -13 22 C-13.3880481 23.11713379 -13.3880481 23.11713379 -13.78393555 24.25683594 C-15.04029867 27.0909046 -16.29591945 28.69547773 -18.45703125 30.890625 C-19.15111084 31.59606445 -19.84519043 32.30150391 -20.56030273 33.02832031 C-21.30352783 33.76147461 -22.04675293 34.49462891 -22.8125 35.25 C-23.57570557 36.00635742 -24.33891113 36.76271484 -25.12524414 37.54199219 C-33.68650245 45.86431917 -43.58132444 53.96987921 -55 58 C-55.66 57.67 -56.32 57.34 -57 57 C-55.35064453 56.07380859 -55.35064453 56.07380859 -53.66796875 55.12890625 C-44.80105452 50.08076621 -36.55200496 44.93113759 -29 38 C-28.26789307 37.33145996 -28.26789307 37.33145996 -27.52099609 36.64941406 C-19.75848347 29.47985407 -13.71955085 21.87914145 -8 13 C-7.28070312 11.94039063 -6.56140625 10.88078125 -5.8203125 9.7890625 C-4.14731914 7.22572074 -3.10283685 4.8358662 -2 2 C-1.34 1.34 -0.68 0.68 0 0 Z " fill="#C29D84" transform="translate(577,499)"/>
<path d="M0 0 C4.37104187 5.35805133 5.36282003 8.86724295 6.0625 15.6875 C6.15192871 16.55858398 6.24135742 17.42966797 6.33349609 18.32714844 C7.31201143 28.87274805 7.18716679 39.42075733 7 50 C0.25 53 0.25 53 -2 53 C-2 52.34 -2 51.68 -2 51 C-0.02 50.34 1.96 49.68 4 49 C4.20342589 39.00952827 4.10386243 29.13957765 3.125 19.1875 C3.00729248 17.94468262 3.00729248 17.94468262 2.88720703 16.67675781 C2.40726861 12.17952293 1.49060379 8.29018319 0 4 C0 2.68 0 1.36 0 0 Z " fill="#8C92AE" transform="translate(446,616)"/>
<path d="M0 0 C3.8490677 0.52014428 5.35742247 1.25171937 8 4 C9.03125 4.515625 10.0625 5.03125 11.125 5.5625 C14 7 14 7 15 9 C20.38042708 12.43431515 26.04250457 14.74646048 32 17 C32 17.66 32 18.32 32 19 C32.763125 19.0825 33.52625 19.165 34.3125 19.25 C39.4149117 20.28777865 44.1455494 22.14287032 49 24 C49 24.33 49 24.66 49 25 C43.65942118 25.32043473 40.64915968 24.57187557 36 22 C35.01 21.690625 34.02 21.38125 33 21.0625 C30 20 30 20 26.9375 17.9375 C24.08371973 16.05521939 22.29115426 15.56419787 19 15 C18.67 14.34 18.34 13.68 18 13 C16.34634594 11.97862543 14.67623498 10.98387706 13 10 C11.22157919 8.75348131 9.46746631 7.4763456 7.7109375 6.19921875 C6.2318066 5.16247631 4.68276812 4.22684216 3.125 3.3125 C1 2 1 2 0 0 Z " fill="#9FA4BB" transform="translate(315,691)"/>
<path d="M0 0 C3.55481171 0.56290945 4.93595468 1.67449253 7.1875 4.4375 C9.84122722 7.62310432 12.55828486 10.70716113 15.375 13.75 C20.32183755 19.21621292 24.66908444 25.04115164 29 31 C28.67 31.66 28.34 32.32 28 33 C23.22658324 28.4778157 23.22658324 28.4778157 22.06640625 26.03125 C20.80834511 23.63494306 19.4098913 22.44769198 17.3125 20.75 C13.0804197 17.16842029 9.56139354 13.23382449 6 9 C5.41605469 8.34257812 4.83210937 7.68515625 4.23046875 7.0078125 C3.68003906 6.38648438 3.12960937 5.76515625 2.5625 5.125 C1.82193359 4.29355469 1.82193359 4.29355469 1.06640625 3.4453125 C0 2 0 2 0 0 Z " fill="#E6AD86" transform="translate(531,316)"/>
<path d="M0 0 C-0.94488281 0.268125 -1.88976562 0.53625 -2.86328125 0.8125 C-7.64641408 2.1801413 -12.41838527 3.58433332 -17.1875 5 C-18.07630859 5.26039063 -18.96511719 5.52078125 -19.88085938 5.7890625 C-20.73873047 6.04429687 -21.59660156 6.29953125 -22.48046875 6.5625 C-23.25285889 6.79066406 -24.02524902 7.01882813 -24.82104492 7.25390625 C-27.02535202 7.94311717 -27.02535202 7.94311717 -29.0324707 9.08984375 C-31 10 -31 10 -35 10 C-35 10.66 -35 11.32 -35 12 C-35.79664063 12.32613281 -36.59328125 12.65226562 -37.4140625 12.98828125 C-44.06721571 15.72612879 -44.06721571 15.72612879 -50.5625 18.8125 C-53 20 -53 20 -56 20 C-50.38807315 15.08956401 -44.49567048 11.74956705 -37 11 C-37 10.34 -37 9.68 -37 9 C-29.54052775 5.37065015 -22.04080479 3.06764738 -14 1.125 C-13.08001221 0.8978833 -12.16002441 0.6707666 -11.2121582 0.43676758 C-9.90057739 0.13162231 -9.90057739 0.13162231 -8.5625 -0.1796875 C-7.78003906 -0.36257324 -6.99757813 -0.54545898 -6.19140625 -0.73388672 C-3.83939311 -1.01950329 -2.24019198 -0.72015283 0 0 Z " fill="#A5A9B8" transform="translate(679,489)"/>
<path d="M0 0 C0.33 0 0.66 0 1 0 C2.01950418 7.60142318 2.18338828 15.08576263 2.1875 22.75 C2.19974609 23.9359375 2.21199219 25.121875 2.22460938 26.34375 C2.25896959 47.32638944 2.25896959 47.32638944 -1.57348633 51.86230469 C-2.04423584 52.23774414 -2.51498535 52.61318359 -3 53 C-2.85923685 51.0412957 -2.7122324 49.08303907 -2.5625 47.125 C-2.48128906 46.03445313 -2.40007812 44.94390625 -2.31640625 43.8203125 C-2 41 -2 41 -1 39 C-0.84279903 36.0851463 -0.74144346 33.19060364 -0.68359375 30.2734375 C-0.66281265 29.41062164 -0.64203156 28.54780579 -0.62062073 27.65884399 C-0.55513966 24.89764507 -0.49624702 22.13634962 -0.4375 19.375 C-0.3943134 17.50519828 -0.35069907 15.63540638 -0.30664062 13.765625 C-0.19945976 9.17718272 -0.09818825 4.58864317 0 0 Z " fill="#8790AD" transform="translate(495,636)"/>
<path d="M0 0 C4.31208722 0.28851216 6.22260736 1.86271567 9.04760742 5.05126953 C9.50627197 5.59122559 9.96493652 6.13118164 10.4375 6.6875 C11.39990566 7.78355062 12.36343758 8.87861339 13.328125 9.97265625 C13.78638672 10.49746582 14.24464844 11.02227539 14.71679688 11.56298828 C16.29757252 13.33324046 17.97135982 14.98649473 19.6875 16.625 C22 19 22 19 22 21 C22.66 21 23.32 21 24 21 C26.24517056 23.82891491 28.0853911 26.94052318 30 30 C30.43441406 30.66515625 30.86882812 31.3303125 31.31640625 32.015625 C34.09664214 36.4717522 34.09664214 36.4717522 33.59765625 39.19921875 C33.40042969 39.79347656 33.20320313 40.38773438 33 41 C31.68417937 38.73103368 30.37224764 36.45996813 29.0625 34.1875 C28.68931641 33.54490234 28.31613281 32.90230469 27.93164062 32.24023438 C26.36533365 29.51683576 24.99630626 26.98891878 24 24 C23.38125 23.71125 22.7625 23.4225 22.125 23.125 C20 22 20 22 18.734375 19.8046875 C16.60272299 16.35755655 14.0231325 13.80556316 11.125 11 C10.60808594 10.49210938 10.09117187 9.98421875 9.55859375 9.4609375 C8.53736474 8.45771505 7.51429615 7.45636123 6.48925781 6.45703125 C4.30783796 4.3228159 2.15395382 2.16190199 0 0 Z " fill="#8D93AF" transform="translate(405,559)"/>
<path d="M0 0 C0.77923828 0.01353516 1.55847656 0.02707031 2.36132812 0.04101562 C4.26202404 0.07599776 6.16235834 0.12979041 8.0625 0.1875 C8.0625 0.5175 8.0625 0.8475 8.0625 1.1875 C6.52529297 1.26097656 6.52529297 1.26097656 4.95703125 1.3359375 C3.5963294 1.41101071 2.23565356 1.48655655 0.875 1.5625 C0.20146484 1.5934375 -0.47207031 1.624375 -1.16601562 1.65625 C-7.57209562 1.99632378 -7.57209562 1.99632378 -12.9375 5.1875 C-13.09738491 7.70630517 -13.19684225 10.20092266 -13.25390625 12.72265625 C-13.27468735 13.47590683 -13.29546844 14.22915741 -13.31687927 15.00523376 C-13.38245425 17.4200599 -13.44129621 19.83499798 -13.5 22.25 C-13.5431777 23.88347529 -13.58679173 25.5169391 -13.63085938 27.15039062 C-13.73814362 31.16264464 -13.83938821 35.17501164 -13.9375 39.1875 C-14.2675 39.1875 -14.5975 39.1875 -14.9375 39.1875 C-15.99398755 31.47597276 -16.05374053 23.90084179 -16 16.125 C-15.99548828 14.87783203 -15.99097656 13.63066406 -15.98632812 12.34570312 C-15.97463163 9.29291779 -15.95824086 6.24023502 -15.9375 3.1875 C-10.3935148 0.38237601 -6.16479121 -0.2060213 0 0 Z " fill="#DADADB" transform="translate(305.9375,527.8125)"/>
<path d="M0 0 C2.48802256 3.73203384 2.24458591 5.66951215 2.23046875 10.125 C2.22978142 11.17820435 2.22978142 11.17820435 2.2290802 12.25268555 C2.22605918 13.74220463 2.2181773 15.2317206 2.20581055 16.72119141 C2.18778938 18.96398569 2.18529948 21.20636028 2.18554688 23.44921875 C2.13359942 45.22883309 2.13359942 45.22883309 -2 53 C-2.55430526 55.60159332 -2.9921503 58.19603328 -3.375 60.828125 C-4 63 -4 63 -7 65 C-6.74605469 64.030625 -6.49210938 63.06125 -6.23046875 62.0625 C-5.88254106 60.70840305 -5.53490098 59.35423218 -5.1875 58 C-5.02185547 57.3709375 -4.85621094 56.741875 -4.68554688 56.09375 C-4.0849755 53.73679064 -3.53609303 51.37253265 -3 49 C-2.73614502 47.83919922 -2.47229004 46.67839844 -2.20043945 45.48242188 C-0.04086561 35.40684849 0.36932449 25.77594252 0.1875 15.5 C0.17239259 13.98308653 0.15871513 12.46615814 0.14648438 10.94921875 C0.11403454 7.29915914 0.06260451 3.64968223 0 0 Z " fill="#84889F" transform="translate(742,531)"/>
<path d="M0 0 C6.24576456 -0.48044343 10.76593369 0.73863963 16.58203125 3.02734375 C26.74796087 5.92027687 37.70515132 5.12255453 48.1875 5.0625 C49.72721208 5.05747197 51.26692575 5.05291138 52.80664062 5.04882812 C56.53779428 5.03793264 60.26888654 5.02074082 64 5 C64 5.33 64 5.66 64 6 C58.08260014 7.39646736 52.13338073 7.18601062 46.09228516 7.18530273 C44.03396123 7.18746433 41.97619627 7.2055746 39.91796875 7.22460938 C28.51852349 7.27440398 17.6768847 5.9561359 6.6875 2.875 C6.03072266 2.69324219 5.37394531 2.51148438 4.69726562 2.32421875 C3.1296655 1.88940996 1.56451877 1.44576883 0 1 C0 0.67 0 0.34 0 0 Z " fill="#9295A4" transform="translate(364,716)"/>
<path d="M0 0 C0.33 0 0.66 0 1 0 C1.04992943 5.47687495 1.0859669 10.95361354 1.10986328 16.43066406 C1.11983921 18.2887605 1.13342478 20.14684158 1.15087891 22.00488281 C1.24420062 32.20439681 1.2842229 42.00298387 -1 52 C-1.66 52 -2.32 52 -3 52 C-3 54.64 -3 57.28 -3 60 C-3.99 60.495 -3.99 60.495 -5 61 C-4.91183337 58.66510447 -4.80483771 56.33347062 -4.6875 54 C-4.62949219 52.700625 -4.57148437 51.40125 -4.51171875 50.0625 C-4.25292426 47.00204531 -3.70848826 45.28374653 -2.5 42.31445312 C-0.75733666 37.80635156 -0.52707513 33.70189497 -0.48828125 28.90625 C-0.47033005 28.07411987 -0.45237885 27.24198975 -0.43388367 26.38464355 C-0.38019373 23.75647886 -0.34601929 21.12849135 -0.3125 18.5 C-0.27929031 16.70570472 -0.24479733 14.91143271 -0.20898438 13.1171875 C-0.12449176 8.74492044 -0.05748541 4.37270214 0 0 Z " fill="#D3A283" transform="translate(589,424)"/>
<path d="M0 0 C0.33 0 0.66 0 1 0 C1.24238377 6.76250722 0.32424721 13.04060856 -0.875 19.6875 C-1.04902344 20.70650391 -1.22304688 21.72550781 -1.40234375 22.77539062 C-2.2263629 27.44178055 -3.12234006 31.62812774 -5 36 C-5.33 36 -5.66 36 -6 36 C-5.53753103 23.86417621 -4.90925326 11.28490684 0 0 Z " fill="#7A86AC" transform="translate(787,561)"/>
<path d="M0 0 C2.50894085 1.55070912 3.8060602 2.46170751 4.82128906 5.27954102 C5.32561137 8.3717018 5.81858321 11.45908961 6.25 14.5625 C6.41983398 15.72950439 6.58966797 16.89650879 6.76464844 18.09887695 C8.74369316 33.33692405 8.36140438 48.66950412 8 64 C7.67 64 7.34 64 7 64 C7 53.44 7 42.88 7 32 C6.34 32 5.68 32 5 32 C4.95512451 31.42145264 4.91024902 30.84290527 4.86401367 30.24682617 C3.74462089 14.88620074 3.74462089 14.88620074 0 0 Z " fill="#9AA0B1" transform="translate(782,484)"/>
<path d="M0 0 C8.415 1.98 8.415 1.98 17 4 C17 4.66 17 5.32 17 6 C27.89 6 38.78 6 50 6 C50 6.33 50 6.66 50 7 C44.04817567 8.28939002 38.12069564 8.18382614 32.0625 8.1875 C31.00353516 8.19974609 29.94457031 8.21199219 28.85351562 8.22460938 C23.18320969 8.2352213 18.40300232 7.91286417 13 6 C11.91976562 5.67 10.83953125 5.34 9.7265625 5 C8.70304688 4.67 7.67953125 4.34 6.625 4 C5.06652344 3.505 5.06652344 3.505 3.4765625 3 C1 2 1 2 0 0 Z " fill="#818BA8" transform="translate(594,671)"/>
<path d="M0 0 C-1.7325 0.86625 -1.7325 0.86625 -3.5 1.75 C-19.23147296 10.49799128 -32.49203019 23.25251587 -45 36 C-45 32.40867438 -44.49083908 32.09888776 -42.0625 29.62890625 C-41.42256104 28.97776855 -40.78262207 28.32663086 -40.12329102 27.65576172 C-39.42260498 26.96498535 -38.72191895 26.27420898 -38 25.5625 C-37.28320068 24.85109863 -36.56640137 24.13969727 -35.82788086 23.40673828 C-29.25237893 17.01271361 -22.22555331 11.4641093 -14.72119141 6.20849609 C-13.17798298 5.12496677 -11.6558339 4.01158864 -10.13671875 2.89453125 C-4.04842789 -1.45994192 -4.04842789 -1.45994192 0 0 Z " fill="#A6A8B3" transform="translate(623,511)"/>
<path d="M0 0 C0.93536754 2.51918005 1.13749192 3.64779468 0.14453125 6.19140625 C-0.29503906 6.97386719 -0.73460937 7.75632812 -1.1875 8.5625 C-3.14341288 12.2305139 -4.74928638 15.82627204 -6.125 19.75 C-9.88015464 30.44007732 -9.88015464 30.44007732 -13 32 C-13.72159424 33.64363134 -14.39351421 35.31050386 -15 37 C-15.66 37 -16.32 37 -17 37 C-15.125 31.25 -15.125 31.25 -14 29 C-13.34 29 -12.68 29 -12 29 C-11.71125 28.0925 -11.4225 27.185 -11.125 26.25 C-10 23 -10 23 -8.9375 21.0625 C-7.80868601 18.84880224 -7.80868601 18.84880224 -7.5625 15.5625 C-6.97443627 11.83809641 -6.08205746 10.08452957 -4 7 C-3.26224209 5.73413482 -2.53335965 4.4630637 -1.8125 3.1875 C-1.214375 2.135625 -0.61625 1.08375 0 0 Z " fill="#9EA4B9" transform="translate(777,607)"/>
<path d="M0 0 C16.14671229 -0.48119341 32.21530411 -0.06859548 47 7 C43.18258669 8.43152999 40.7976221 7.48601851 37 6.25 C25.05260483 2.65873053 12.36582325 2.12357737 0 1 C0 0.67 0 0.34 0 0 Z " fill="#8086A4" transform="translate(314,528)"/>
<path d="M0 0 C0.66 0 1.32 0 2 0 C1.82548237 7.17108811 0.11485982 12.81667517 -2.84375 19.3359375 C-3.816336 21.57682822 -4.50329156 23.61805727 -5 26 C-5.66 26 -6.32 26 -7 26 C-7.33 29.3 -7.66 32.6 -8 36 C-8.33 36 -8.66 36 -9 36 C-9.33077779 29.58291083 -8.25370623 24.61457925 -6.1875 18.5625 C-5.92646484 17.76779297 -5.66542969 16.97308594 -5.39648438 16.15429688 C-4.60927997 13.76547165 -3.80585475 11.38259044 -3 9 C-2.43282865 7.30103647 -1.8663894 5.60182832 -1.30078125 3.90234375 C-0.8671875 2.6015625 -0.43359375 1.30078125 0 0 Z " fill="#D6A989" transform="translate(454,381)"/>
<path d="M0 0 C0.33 0 0.66 0 1 0 C1.01458252 0.83249268 1.02916504 1.66498535 1.04418945 2.52270508 C1.1052863 5.61489653 1.17944556 8.70642082 1.26245117 11.7980957 C1.31201319 13.7929063 1.34651133 15.78807257 1.38085938 17.78320312 C1.41630859 19.03681641 1.45175781 20.29042969 1.48828125 21.58203125 C1.51446533 22.73936768 1.54064941 23.8967041 1.56762695 25.08911133 C1.75771397 27.99456002 1.75771397 27.99456002 3.41796875 29.84179688 C5.12277488 31.08988334 6.72454509 31.90972541 8.6875 32.6875 C9.780625 33.120625 10.87375 33.55375 12 34 C12 34.33 12 34.66 12 35 C9.4375 35.5 9.4375 35.5 6 35 C2.21764851 32.16585781 -0.59243167 28.93136294 -1.58032227 24.25 C-1.72379727 21.22158931 -1.66196151 18.27713775 -1.5 15.25 C-1.47679687 14.22261719 -1.45359375 13.19523438 -1.4296875 12.13671875 C-1.30949232 7.94627761 -1.15361454 4.04706814 0 0 Z " fill="#7A86AC" transform="translate(582,636)"/>
<path d="M0 0 C-6.75 3 -6.75 3 -9 3 C-9 3.66 -9 4.32 -9 5 C-9.85851562 5.39832031 -10.71703125 5.79664063 -11.6015625 6.20703125 C-15.134929 8.07118668 -18.2386339 10.23824136 -21.375 12.6875 C-21.94009277 13.12376709 -22.50518555 13.56003418 -23.08740234 14.00952148 C-27.18097596 17.22322816 -30.88310467 20.67227734 -34.4140625 24.50390625 C-36 26 -36 26 -39 27 C-39 25 -39 25 -37.56640625 23.5546875 C-36.90511719 23.00039063 -36.24382813 22.44609375 -35.5625 21.875 C-33.3182359 19.97932142 -31.0970592 18.09130617 -28.95703125 16.078125 C-8.55915675 -3.0568417 -8.55915675 -3.0568417 0 0 Z " fill="#858EB1" transform="translate(652,545)"/>
<path d="M0 0 C4.41913539 0.44191354 7.6833306 1.75791442 11.58984375 3.8203125 C18.43808588 7.17228839 25.76277626 9.63105889 33 12 C33 12.33 33 12.66 33 13 C20.68028818 12.17868588 10.21655736 7.90161055 0 1 C0 0.67 0 0.34 0 0 Z " fill="#838AA8" transform="translate(561,705)"/>
<path d="M0 0 C0.6953125 1.6953125 0.6953125 1.6953125 1 4 C-0.2578125 6.3671875 -0.2578125 6.3671875 -2.125 8.875 C-2.7746875 9.7515625 -3.424375 10.628125 -4.09375 11.53125 C-4.7228125 12.3459375 -5.351875 13.160625 -6 14 C-6.4640625 14.6084375 -6.928125 15.216875 -7.40625 15.84375 C-9.9489483 19.03842222 -12.72790026 21.56929733 -16 24 C-16.66 23.67 -17.32 23.34 -18 23 C-16.38405168 20.95880212 -14.7143618 18.95927063 -13 17 C-12.34 17 -11.68 17 -11 17 C-10.61328125 15.90558594 -10.61328125 15.90558594 -10.21875 14.7890625 C-8.95384439 11.89437467 -7.48441765 9.82188786 -5.5 7.375 C-3.54847024 4.95212619 -1.72828558 2.59242838 0 0 Z " fill="#8A8B9E" transform="translate(722,620)"/>
<path d="M0 0 C2.48172401 3.72258602 2.81306076 7.23489891 3.4375 11.5625 C4.34949192 17.49750804 5.47437866 23.0985876 7.37109375 28.80859375 C8.42959288 32.4969044 8.69219641 36.18323542 9 40 C3.55734259 31.83601389 2.90850643 22.64210481 1.375 13.125 C1.17209351 11.87577759 1.17209351 11.87577759 0.96508789 10.60131836 C0.83996826 9.80733643 0.71484863 9.01335449 0.5859375 8.1953125 C0.41650635 7.12821045 0.41650635 7.12821045 0.24365234 6.03955078 C0 4 0 4 0 0 Z " fill="#7F86AA" transform="translate(247,567)"/>
<path d="M0 0 C0.33 0 0.66 0 1 0 C1.17015625 1.1859375 1.3403125 2.371875 1.515625 3.59375 C2.9247004 13.10945554 4.66932842 22.37955769 7.1328125 31.6796875 C7.85523615 34.44572398 8.47662402 37.19085951 9 40 C7 39 7 39 6.03515625 36.69921875 C4.99365284 33.47432266 3.98000469 30.24415344 3 27 C2.69449219 26.030625 2.38898438 25.06125 2.07421875 24.0625 C-0.25848502 15.92567549 -0.30982567 8.39971808 0 0 Z " fill="#7E87A0" transform="translate(290,558)"/>
<path d="M0 0 C0 0.33 0 0.66 0 1 C-1.16015625 1.28230469 -2.3203125 1.56460938 -3.515625 1.85546875 C-7.63448306 2.88699455 -11.69630253 4.05056635 -15.75 5.3125 C-16.43594238 5.52471191 -17.12188477 5.73692383 -17.82861328 5.95556641 C-23.29276454 7.68636775 -28.52285797 9.80467924 -33.7421875 12.1796875 C-34.48726562 12.45039062 -35.23234375 12.72109375 -36 13 C-36.66 12.67 -37.32 12.34 -38 12 C-33.24271651 8.47778049 -28.62792347 6.63024346 -23 4.875 C-22.21882812 4.62363281 -21.43765625 4.37226562 -20.6328125 4.11328125 C-19.11311954 3.62462577 -17.5918392 3.14087335 -16.06884766 2.66259766 C-14.27104936 2.08681 -12.48919062 1.46170687 -10.7109375 0.828125 C-6.97073655 -0.31441477 -3.88983579 -0.13413227 0 0 Z " fill="#6D78A6" transform="translate(690,531)"/>
<path d="M0 0 C5.13369877 6.57291489 8.17728844 14.04517262 10.875 21.875 C11.1023584 22.51735596 11.3297168 23.15971191 11.56396484 23.8215332 C12.6863768 27.20879625 13.37644462 29.61836446 12 33 C10.3588555 29.32696232 8.88065305 25.71723691 7.6875 21.875 C6.01750943 16.65852409 3.61762213 11.82712829 1.20703125 6.91796875 C0 4 0 4 0 0 Z " fill="#9BA1B3" transform="translate(477,578)"/>
<path d="M0 0 C0 5.98088008 -4.79106027 10.34493706 -8.35546875 14.83984375 C-10.1288099 17.08251701 -10.1288099 17.08251701 -11.8125 20.0625 C-12.204375 20.701875 -12.59625 21.34125 -13 22 C-13.66 22 -14.32 22 -15 22 C-12.0534941 13.64401147 -5.74162459 6.63875343 0 0 Z " fill="#8F91A3" transform="translate(576,547)"/>
<path d="M0 0 C0.33 0 0.66 0 1 0 C1.84057704 8.40577035 -0.88361355 13.75957026 -5 21 C-5.33 21 -5.66 21 -6 21 C-5.73344773 15.24247093 -4.80498038 10.85285162 -1.9375 5.82421875 C-0.94935675 3.90145667 -0.44684704 2.10855948 0 0 Z " fill="#E0A072" transform="translate(546,461)"/>
<path d="M0 0 C0.66 0.33 1.32 0.66 2 1 C-10.30068337 14.81776765 -10.30068337 14.81776765 -18 20 C-16.5735422 16.7413364 -14.83295838 14.5975146 -12.3046875 12.109375 C-11.23154297 11.04589844 -11.23154297 11.04589844 -10.13671875 9.9609375 C-9.39035156 9.23132813 -8.64398437 8.50171875 -7.875 7.75 C-7.12089844 7.00492188 -6.36679687 6.25984375 -5.58984375 5.4921875 C-3.73099228 3.6568658 -1.86762995 1.8263809 0 0 Z " fill="#4B5A9A" transform="translate(595,529)"/>
<path d="M0 0 C0 7.4945192 -6.33776821 16.33969513 -11 22 C-11.66 22 -12.32 22 -13 22 C-13.66 23.32 -14.32 24.64 -15 26 C-15 22.25781956 -13.93469563 21.17539255 -11.75 18.1875 C-11.11191406 17.300625 -10.47382812 16.41375 -9.81640625 15.5 C-9.21699219 14.675 -8.61757813 13.85 -8 13 C-5.48960223 9.45949981 -3.57786635 6.05737061 -2 2 C-1.34 1.34 -0.68 0.68 0 0 Z " fill="#CCA188" transform="translate(577,499)"/>
<path d="M0 0 C6.55925943 0.38979206 11.94526627 1.42113193 18 4 C18 4.66 18 5.32 18 6 C19.2065625 6.185625 19.2065625 6.185625 20.4375 6.375 C21.283125 6.58125 22.12875 6.7875 23 7 C23.33 7.66 23.66 8.32 24 9 C19.55146002 7.79518709 15.28875983 6.38611519 10.9921875 4.72265625 C9.05253572 4.01905708 7.11932756 3.46297635 5.125 2.9375 C2 2 2 2 0 0 Z " fill="#A4ACC2" transform="translate(366,491)"/>
<path d="M0 0 C1.16208984 0.01353516 1.16208984 0.01353516 2.34765625 0.02734375 C4.23190843 0.05060612 6.11599832 0.0864636 8 0.125 C8 0.455 8 0.785 8 1.125 C4.48026001 1.63290159 0.95905958 2.12988523 -2.5625 2.625 C-3.55314453 2.76808594 -4.54378906 2.91117187 -5.56445312 3.05859375 C-10.76467588 3.78420623 -15.74952418 4.30173411 -21 4.125 C-14.42270393 0.28824396 -7.4056949 -0.16685274 0 0 Z " fill="#AAAEBE" transform="translate(700,483.875)"/>
<path d="M0 0 C4.47255668 0.53866559 7.15182901 2.2201333 10.75 4.875 C12.19632813 5.92300781 12.19632813 5.92300781 13.671875 6.9921875 C16 9 16 9 17 12 C12.66498025 10.52818439 9.28143997 8.2017333 5.6875 5.4375 C4.86282227 4.8197168 4.86282227 4.8197168 4.02148438 4.18945312 C2.65866955 3.1550682 1.32624296 2.08087744 0 1 C0 0.67 0 0.34 0 0 Z " fill="#747DA2" transform="translate(544,693)"/>
<path d="M0 0 C0.33 0 0.66 0 1 0 C1.26554687 1.19238281 1.53109375 2.38476562 1.8046875 3.61328125 C2.16113217 5.17976175 2.51792097 6.74616398 2.875 8.3125 C3.13603516 9.49102539 3.13603516 9.49102539 3.40234375 10.69335938 C3.66337891 11.8293457 3.66337891 11.8293457 3.9296875 12.98828125 C4.08679199 13.68477783 4.24389648 14.38127441 4.40576172 15.09887695 C4.99513393 17.29734212 4.99513393 17.29734212 7 20 C6.625 22.1875 6.625 22.1875 6 24 C0.35893018 16.8546449 -0.32899924 8.88297942 0 0 Z " fill="#CBB9AF" transform="translate(487,455)"/>
<path d="M0 0 C7.58954531 0.44644384 14.01639737 3.11500562 21 6 C21 6.33 21 6.66 21 7 C15.65942118 7.32043473 12.64915968 6.57187557 8 4 C6.9275 3.649375 5.855 3.29875 4.75 2.9375 C2 2 2 2 0 0 Z " fill="#AEB0C0" transform="translate(343,709)"/>
<path d="M0 0 C1.21992215 2.9122997 1.01199085 3.96877469 -0.14453125 6.98046875 C-0.69496094 8.03878906 -1.24539063 9.09710937 -1.8125 10.1875 C-2.62654297 11.78658203 -2.62654297 11.78658203 -3.45703125 13.41796875 C-5 16 -5 16 -7 17 C-7.37350284 12.64246682 -6.39866229 10.59799343 -4 7 C-3.26256888 5.73394442 -2.533613 4.46292049 -1.8125 3.1875 C-1.214375 2.135625 -0.61625 1.08375 0 0 Z " fill="#7A85AE" transform="translate(777,607)"/>
<path d="M0 0 C4.77235098 4.21089792 8.28419455 9.23146586 11 15 C10.67 15.66 10.34 16.32 10 17 C9.67 16.01 9.34 15.02 9 14 C8.34 14 7.68 14 7 14 C5.2734375 11.953125 5.2734375 11.953125 3.375 9.25 C2.74335937 8.36828125 2.11171875 7.4865625 1.4609375 6.578125 C0 4 0 4 0 0 Z " fill="#D9B79E" transform="translate(560,349)"/>
<path d="M0 0 C-0.29876595 2.88807083 -0.7806728 3.82055047 -3.0625 5.6875 C-6.79307108 7.35435091 -9.93497396 7.65550627 -14 8 C-4.57142857 0 -4.57142857 0 0 0 Z " fill="#7E84A3" transform="translate(685,660)"/>
<path d="M0 0 C0.70703125 1.55078125 0.70703125 1.55078125 1 4 C-0.00746282 6.52587382 -1.04862792 8.79909956 -2.3125 11.1875 C-2.63412109 11.82880859 -2.95574219 12.47011719 -3.28710938 13.13085938 C-5.71878332 17.85939166 -5.71878332 17.85939166 -8 19 C-6.00386732 12.2813095 -3.2708579 6.19265192 0 0 Z " fill="#8387A5" transform="translate(560,569)"/>
<path d="M0 0 C4.82890552 3.51193128 8.306434 7.12507794 10 13 C9.59765625 15.24609375 9.59765625 15.24609375 9 17 C8.16151196 15.54462432 7.32936066 14.08559627 6.5 12.625 C6.0359375 11.81289063 5.571875 11.00078125 5.09375 10.1640625 C4 8 4 8 4 6 C2.68 5.34 1.36 4.68 0 4 C0 2.68 0 1.36 0 0 Z " fill="#9DA3B4" transform="translate(467,561)"/>
<path d="M0 0 C0.66 0 1.32 0 2 0 C4.24517056 2.82891491 6.0853911 5.94052318 8 9 C8.43441406 9.66515625 8.86882812 10.3303125 9.31640625 11.015625 C12.09664214 15.4717522 12.09664214 15.4717522 11.59765625 18.19921875 C11.40042969 18.79347656 11.20320313 19.38773438 11 20 C9.72710095 17.79283537 8.4566395 15.58432515 7.1875 13.375 C6.83107422 12.75753906 6.47464844 12.14007812 6.10742188 11.50390625 C3.94086828 7.72734494 1.9095701 3.91552228 0 0 Z " fill="#7C84A8" transform="translate(427,580)"/>
<path d="M0 0 C-6.80115211 4.00067771 -13.20744828 5.09720437 -21 6 C-17.5378962 2.91073815 -13.77596844 1.86288857 -9.375 0.75 C-8.694375 0.564375 -8.01375 0.37875 -7.3125 0.1875 C-2.26071429 -1.13035714 -2.26071429 -1.13035714 0 0 Z " fill="#6A749C" transform="translate(450,715)"/>
<path d="M0 0 C0.78708775 2.27781751 1.18023153 3.51953338 0.3190918 5.81518555 C-0.05046631 6.4162915 -0.42002441 7.01739746 -0.80078125 7.63671875 C-1.20103516 8.29607422 -1.60128906 8.95542969 -2.01367188 9.63476562 C-2.44228516 10.31216797 -2.87089844 10.98957031 -3.3125 11.6875 C-3.72951172 12.37650391 -4.14652344 13.06550781 -4.57617188 13.77539062 C-7.70688966 18.85344483 -7.70688966 18.85344483 -10 20 C-9.70300351 15.24805617 -7.33322331 12.65270544 -4.5 9.0703125 C-2.41787371 6.19654444 -1.24249407 3.31331751 0 0 Z " fill="#C6B6AA" transform="translate(539,478)"/>
<path d="M0 0 C2.0625 0.4375 2.0625 0.4375 4 1 C0.50412041 3.33058639 -2.92041315 4.19132 -6.9375 5.1875 C-7.65357422 5.37763672 -8.36964844 5.56777344 -9.10742188 5.76367188 C-12.80339833 6.6919477 -15.36551019 7.1215946 -19 6 C-13.92541222 4.16750997 -8.75368314 2.92799612 -3.51171875 1.68359375 C-1.07934642 1.24487841 -1.07934642 1.24487841 0 0 Z " fill="#C9CACE" transform="translate(440,669)"/>
<path d="M0 0 C7.51806849 -0.44032071 13.84224277 0.71387222 21 3 C21 3.33 21 3.66 21 4 C13.52605426 4.37369729 7.17859349 3.04061541 0 1 C0 0.67 0 0.34 0 0 Z " fill="#8894B5" transform="translate(335,485)"/>
<path d="M0 0 C0.48210937 0.42152344 0.96421875 0.84304688 1.4609375 1.27734375 C2.09257812 1.82519531 2.72421875 2.37304688 3.375 2.9375 C4.00148438 3.48277344 4.62796875 4.02804687 5.2734375 4.58984375 C6.95632334 6.06958624 6.95632334 6.06958624 9 7 C9.625 9.0625 9.625 9.0625 10 11 C6.07417129 9.69139043 3.6012063 8.25150787 1 5 C0.25 2.25 0.25 2.25 0 0 Z " fill="#727B9D" transform="translate(321,636)"/>
<path d="M0 0 C0.33 0.99 0.66 1.98 1 3 C-3.29 7.29 -7.58 11.58 -12 16 C-12.66 15.67 -13.32 15.34 -14 15 C-13.40832031 14.41992188 -12.81664062 13.83984375 -12.20703125 13.2421875 C-7.90148281 8.98580519 -3.76799131 4.74037617 0 0 Z " fill="#F48C41" transform="translate(509,309)"/>
<path d="M0 0 C3.92491136 4.52874388 7.37459686 9.60598991 10 15 C9.67 15.66 9.34 16.32 9 17 C0 6.75 0 6.75 0 0 Z " fill="#CEB4A5" transform="translate(494,479)"/>
<path d="M0 0 C3.8490677 0.52014428 5.35742247 1.25171937 8 4 C9.97620986 5.04622875 11.9737129 6.05439935 14 7 C14 7.66 14 8.32 14 9 C8.40440609 7.60110152 4.29704147 4.74082545 0 1 C0 0.67 0 0.34 0 0 Z " fill="#868FB5" transform="translate(315,691)"/>
<path d="M0 0 C3.67230705 3.07999946 4.56802365 5.2482602 5 10 C5.66 10 6.32 10 7 10 C7 11.98 7 13.96 7 16 C3.04961337 11.25953605 0 6.21355834 0 0 Z " fill="#9197B0" transform="translate(439,600)"/>
<path d="M0 0 C3.65646331 3.65646331 4.79304546 9.36449726 5.19140625 14.4375 C5.18809328 16.2927611 5.10291153 18.14759239 5 20 C3.20958752 16.76168874 2.26249761 13.58584892 1.375 10 C1.11460937 8.96875 0.85421875 7.9375 0.5859375 6.875 C0 4 0 4 0 0 Z " fill="#D8A27D" transform="translate(584,400)"/>
<path d="M0 0 C3.37152081 3.85316664 6.40892534 8.0901193 8 13 C7.60546875 15.24609375 7.60546875 15.24609375 7 17 C5.82286337 14.9219935 4.65828026 12.83848217 3.5 10.75 C3.16613281 10.16347656 2.83226562 9.57695312 2.48828125 8.97265625 C0.63923194 5.61417893 0 3.93354216 0 0 Z " fill="#D1BEB0" transform="translate(571,366)"/>
<path d="M0 0 C5.13858696 6.29891304 5.13858696 6.29891304 5.0625 11.625 C5.05347656 12.44226563 5.04445313 13.25953125 5.03515625 14.1015625 C5.02355469 14.72804688 5.01195312 15.35453125 5 16 C4.67 16 4.34 16 4 16 C4 14.02 4 12.04 4 10 C3.34 10 2.68 10 2 10 C0.68373308 6.38026598 0 3.90432869 0 0 Z " fill="#5C6BA5" transform="translate(446,616)"/>
<path d="M0 0 C3.0705084 4.04748835 5.20651155 7.13581352 6.125 12.1875 C6.29257812 13.08855469 6.46015625 13.98960937 6.6328125 14.91796875 C6.75398438 15.60503906 6.87515625 16.29210937 7 17 C3.99498632 15.49749316 3.63911858 13.24430136 2.375 10.1875 C1.92898438 9.12917969 1.48296875 8.07085938 1.0234375 6.98046875 C0 4 0 4 0 0 Z " fill="#7F89A8" transform="translate(477,578)"/>
<path d="M0 0 C0.9075 0.103125 1.815 0.20625 2.75 0.3125 C3.41 1.6325 4.07 2.9525 4.75 4.3125 C3.76 3.6525 2.77 2.9925 1.75 2.3125 C-1.65353913 2.63243268 -3.5124187 4.12660921 -6 6.375 C-6.61359375 6.92285156 -7.2271875 7.47070312 -7.859375 8.03515625 C-8.31828125 8.45667969 -8.7771875 8.87820313 -9.25 9.3125 C-4.94477496 0.47545913 -4.94477496 0.47545913 0 0 Z " fill="#DFDFDF" transform="translate(517.25,366.6875)"/>
<path d="M0 0 C0 0.99 0 1.98 0 3 C-0.33 2.67 -0.66 2.34 -1 2 C-3.9157691 1.58297878 -3.9157691 1.58297878 -7 2 C-8.77409808 3.92022703 -8.77409808 3.92022703 -10 6 C-10.66 6 -11.32 6 -12 6 C-9.05707332 -0.56499028 -7.24604106 -1.50389531 0 0 Z " fill="#AB8D7A" transform="translate(521,366)"/>
<path d="M0 0 C4.95 0.99 4.95 0.99 10 2 C10 2.66 10 3.32 10 4 C7.03 3.67 4.06 3.34 1 3 C0.67 2.01 0.34 1.02 0 0 Z " fill="#6B779E" transform="translate(361,668)"/>
<path d="M0 0 C0.680625 0.598125 1.36125 1.19625 2.0625 1.8125 C5.31674834 4.23587643 8.23936225 5.5252401 12 7 C12 7.33 12 7.66 12 8 C8.9361192 8.43769726 6.83395091 8.60855877 4.265625 6.734375 C2.71528294 5.21356327 1.28159145 3.75423511 0 2 C0 1.34 0 0.68 0 0 Z " fill="#8C92AB" transform="translate(582,663)"/>
<path d="M0 0 C5.21979128 -0.1799928 9.07262981 0.02905192 14 2 C14 2.33 14 2.66 14 3 C8.78020872 3.1799928 4.92737019 2.97094808 0 1 C0 0.67 0 0.34 0 0 Z " fill="#767EA6" transform="translate(364,716)"/>
<path d="M0 0 C0.33 0.66 0.66 1.32 1 2 C-1.39452357 5.99087261 -3.69295516 6.59552886 -8 8 C-8.33 8.99 -8.66 9.98 -9 11 C-9.66 10.67 -10.32 10.34 -11 10 C-8.27782099 6.1687851 -6.36379604 4.60771433 -2 3 C-1.34 2.01 -0.68 1.02 0 0 Z " fill="#A8ABBA" transform="translate(493,688)"/>
<path d="M0 0 C-5.24749603 2.62374802 -8.08847633 3.09534716 -14 3 C-10.07503936 -0.92496064 -5.24412188 -0.08740203 0 0 Z " fill="#878DA7" transform="translate(658,674)"/>
<path d="M0 0 C4.30764815 1.56641751 8.06171464 3.68336156 12 6 C9.46100862 6.9435441 8.39090725 7.16906025 5.859375 6.07421875 C5.16328125 5.61660156 4.4671875 5.15898438 3.75 4.6875 C3.04359375 4.23761719 2.3371875 3.78773438 1.609375 3.32421875 C1.07828125 2.88722656 0.5471875 2.45023438 0 2 C0 1.34 0 0.68 0 0 Z " fill="#67749A" transform="translate(349,661)"/>
<path d="M0 0 C0 3.48961209 -0.90379374 5.11480295 -2.5 8.1875 C-2.9640625 9.08855469 -3.428125 9.98960937 -3.90625 10.91796875 C-4.2671875 11.60503906 -4.628125 12.29210937 -5 13 C-5.625 11.125 -5.625 11.125 -6 9 C-5.34 8.34 -4.68 7.68 -4 7 C-3.67 6.175 -3.34 5.35 -3 4.5 C-2 2 -2 2 0 0 Z " fill="#CAAA95" transform="translate(577,499)"/>
<path d="M0 0 C1 2 1 2 0.546875 3.8046875 C-0.91664204 7.60696217 -2.27937222 10.89071111 -5 14 C-4.46515599 8.65155992 -2.53309233 4.64203897 0 0 Z " fill="#C7B4A8" transform="translate(583,485)"/>
<path d="M0 0 C3.26008643 3.16952847 6.22237877 6.39937989 9 10 C8.67 10.66 8.34 11.32 8 12 C4.72257902 8.89973691 2.06895163 6.02901106 0 2 C0 1.34 0 0.68 0 0 Z " fill="#D5BFAF" transform="translate(551,337)"/>
<path d="M0 0 C3 1 3 1 4.75 3.8125 C5.98589446 6.96403086 6.28222189 7.96929372 5 11 C4.34 9.02 3.68 7.04 3 5 C2.34 5 1.68 5 1 5 C0.67 3.35 0.34 1.7 0 0 Z " fill="#8A91B0" transform="translate(263,626)"/>
<path d="M0 0 C-1.95421035 0.86355778 -3.91351347 1.71559934 -5.875 2.5625 C-6.96554687 3.03816406 -8.05609375 3.51382813 -9.1796875 4.00390625 C-10.11039063 4.33261719 -11.04109375 4.66132812 -12 5 C-12.66 4.67 -13.32 4.34 -14 4 C-6.00579542 -1.6322805 -6.00579542 -1.6322805 0 0 Z " fill="#8E95AF" transform="translate(666,539)"/>
<path d="M0 0 C1.18771723 3.42943519 0.80226223 5.37784675 -0.4375 8.75 C-0.86869141 9.94882812 -0.86869141 9.94882812 -1.30859375 11.171875 C-1.65083984 12.07679688 -1.65083984 12.07679688 -2 13 C-2.33 13 -2.66 13 -3 13 C-2.52060632 8.28596212 -2.03165952 4.33420699 0 0 Z " fill="#E28A53" transform="translate(584,476)"/>
<path d="M0 0 C0.8125 1.6875 0.8125 1.6875 1 4 C-1.4375 6.75 -1.4375 6.75 -4 9 C-4 5.00095031 -2.27413033 3.19799578 0 0 Z " fill="#999BA7" transform="translate(722,620)"/>
<path d="M0 0 C0.86325845 2.41712366 1.1132654 3.64990694 0.3125 6.125 C-1.2190732 8.31296172 -2.54765115 9.01906046 -5 10 C-4.71125 9.443125 -4.4225 8.88625 -4.125 8.3125 C-2.94687457 5.9654682 -2.94687457 5.9654682 -1.9375 3.3125 C-1 1 -1 1 0 0 Z " fill="#9699AA" transform="translate(728,610)"/>
<path d="M0 0 C0.33 0.99 0.66 1.98 1 3 C-0.8125 6.1875 -0.8125 6.1875 -3 9 C-3.66 9 -4.32 9 -5 9 C-3.7508258 5.54074837 -2.32472205 2.85306797 0 0 Z " fill="#9799A8" transform="translate(566,560)"/>
<path d="M0 0 C2.70931419 0.15481795 4.46584039 0.48172081 6.4453125 2.40234375 C7.67679642 3.89771708 8.8429837 5.4462924 10 7 C6.42032008 5.34784004 3.22017048 3.26875648 0 1 C0 0.67 0 0.34 0 0 Z " fill="#8C93AF" transform="translate(395,552)"/>
<path d="M0 0 C2.5 2.3125 2.5 2.3125 5 5 C5 5.99 5 6.98 5 8 C2.5 6.25 2.5 6.25 0 4 C0 2.68 0 1.36 0 0 Z " fill="#7C839B" transform="translate(315,628)"/>
<path d="M0 0 C2.27521866 2.16687491 4.15794162 4.45620509 6 7 C5.67 7.66 5.34 8.32 5 9 C2.5 6.75 2.5 6.75 0 4 C0 2.68 0 1.36 0 0 Z " fill="#757C96" transform="translate(309,619)"/>
<path d="M0 0 C0.6875 1.625 0.6875 1.625 1 4 C-0.4375 7.25 -0.4375 7.25 -2 10 C-2.33 10 -2.66 10 -3 10 C-3.36923077 4.58461538 -3.36923077 4.58461538 -1.5 1.625 C-1.005 1.08875 -0.51 0.5525 0 0 Z " fill="#A6ACC1" transform="translate(592,604)"/>
<path d="M0 0 C0.33 0.99 0.66 1.98 1 3 C1.66 3 2.32 3 3 3 C5 6 5 6 4.625 8.1875 C4.41875 8.785625 4.2125 9.38375 4 10 C0 4.5 0 4.5 0 0 Z " fill="#D8AA8D" transform="translate(489,469)"/>
<path d="M0 0 C1.65 0.99 3.3 1.98 5 3 C4.67 4.32 4.34 5.64 4 7 C0 2.25 0 2.25 0 0 Z " fill="#E19E70" transform="translate(502,495)"/>
</svg>
